<?xml version="1.0" encoding="utf-8"?>
<!-- created with bpmn-js / http://bpmn.io -->
<!DOCTYPE svg PUBLIC "-//W3C//DTD SVG 1.1//EN" "http://www.w3.org/Graphics/SVG/1.1/DTD/svg11.dtd">
<svg xmlns="http://www.w3.org/2000/svg" xmlns:xlink="http://www.w3.org/1999/xlink" width="1014" height="745" viewBox="146 75 1014 745" version="1.1"><defs><marker id="sequenceflow-end-white-black-88mve2nybhikl4lh9zoyj7p5s" viewBox="0 0 20 20" refX="11" refY="10" markerWidth="10" markerHeight="10" orient="auto"><path d="M 1 5 L 11 10 L 1 15 Z" style="fill: black; stroke-width: 1px; stroke-linecap: round; stroke-dasharray: 10000px, 1px; stroke: black;"/></marker><marker id="messageflow-end-white-black-88mve2nybhikl4lh9zoyj7p5s" viewBox="0 0 20 20" refX="8.5" refY="5" markerWidth="20" markerHeight="20" orient="auto"><path d="m 1 5 l 0 -3 l 7 3 l -7 3 z" style="fill: white; stroke-width: 1px; stroke-linecap: butt; stroke-dasharray: 10000px, 1px; stroke: black;"/></marker><marker id="messageflow-start-white-black-88mve2nybhikl4lh9zoyj7p5s" viewBox="0 0 20 20" refX="6" refY="6" markerWidth="20" markerHeight="20" orient="auto"><circle cx="6" cy="6" r="3.5" style="fill: white; stroke-width: 1px; stroke-linecap: round; stroke-dasharray: 10000px, 1px; stroke: black;"/></marker></defs><g class="djs-group"><g class="djs-element djs-shape" data-element-id="_552568b1-4481-4c6a-af54-2552b66712c8" transform="matrix(1, 0, 0, 1, 152, 81)" style="display: block;"><g class="djs-visual"><rect x="0" y="0" width="1002" height="204" rx="0" ry="0" style="stroke: black; stroke-width: 2px; fill: white; fill-opacity: 0.95;"/><polyline points="30,0 30,204 " style="fill: none; stroke: black; stroke-width: 2px;"/><text style="font-family: Arial, sans-serif; font-size: 12px; font-weight: normal; fill: black;" lineHeight="1.2" class="djs-label" transform="matrix(-1.83697e-16, -1, 1, -1.83697e-16, 0, 204)"><tspan x="59.66666793823242" y="18.6">Pizza Customer</tspan></text></g><rect x="-6" y="-6" width="1014" height="216" style="fill: none;" class="djs-outline"/><rect style="fill: none; stroke-opacity: 0; stroke: white; stroke-width: 15px;" class="djs-hit djs-hit-click-stroke" x="0" y="0" width="1002" height="204"/><rect style="fill: none; stroke-opacity: 0; stroke: white; stroke-width: 15px;" class="djs-hit djs-hit-all" x="0" y="0" width="30" height="204"/></g><g class="djs-children"><g class="djs-group"><g class="djs-element djs-connection" data-element-id="_ae3c0e89-6bd2-4d18-962d-501724650306" style="display: block;"><g class="djs-visual"><path d="m  812.5308642047986,134.82716080634046L826.5308642047986,134.82716080634046 L826.5308642047986,171.82716080634043 L859.5308642047986,170.82716080634043 " style="fill: none; stroke-width: 2px; stroke: black; stroke-linejoin: round; marker-end: url('#sequenceflow-end-white-black-88mve2nybhikl4lh9zoyj7p5s');"/></g><polyline points="812.5308642047986,134.82716080634046 826.5308642047986,134.82716080634046 826.5308642047986,171.82716080634043 859.5308642047986,170.82716080634043 " style="fill: none; stroke-opacity: 0; stroke: white; stroke-width: 15px;" class="djs-hit djs-hit-stroke"/><rect x="806.5308642047986" y="128.82716080634046" width="59" height="48.99999999999997" style="fill: none;" class="djs-outline"/></g></g><g class="djs-group"><g class="djs-element djs-connection" data-element-id="_838310ba-1fae-4ca5-ad48-660728c030d5" style="display: block;"><g class="djs-visual"><path d="m  942.5308642047986,182.82716080634043L973.5308642047986,182.82716080634043 " style="fill: none; stroke-width: 2px; stroke: black; stroke-linejoin: round; marker-end: url('#sequenceflow-end-white-black-88mve2nybhikl4lh9zoyj7p5s');"/></g><polyline points="942.5308642047986,182.82716080634043 973.5308642047986,182.82716080634043 " style="fill: none; stroke-opacity: 0; stroke: white; stroke-width: 15px;" class="djs-hit djs-hit-stroke"/><rect x="936.5308642047986" y="176.82716080634043" width="43" height="12" style="fill: none;" class="djs-outline"/></g></g><g class="djs-group"><g class="djs-element djs-connection" data-element-id="_eb6f86e3-c653-43eb-b0ef-3cf551c52e98" style="display: block;"><g class="djs-visual"><path d="m  1057.5308642047985,182.82716080634043L1088.5308642047985,182.82716080634043 " style="fill: none; stroke-width: 2px; stroke: black; stroke-linejoin: round; marker-end: url('#sequenceflow-end-white-black-88mve2nybhikl4lh9zoyj7p5s');"/></g><polyline points="1057.5308642047985,182.82716080634043 1088.5308642047985,182.82716080634043 " style="fill: none; stroke-opacity: 0; stroke: white; stroke-width: 15px;" class="djs-hit djs-hit-stroke"/><rect x="1051.5308642047985" y="176.82716080634043" width="43" height="12" style="fill: none;" class="djs-outline"/></g></g><g class="djs-group"><g class="djs-element djs-connection" data-element-id="_47b4c6e6-d3a5-43d1-9f96-b66b620927b4" style="display: block;"><g class="djs-visual"><path d="m  574.5308642047986,154.82716080634046L574.5308642047986,213.82716080634043 L619.5308642047986,214.82716080634043 " style="fill: none; stroke-width: 2px; stroke: black; stroke-linejoin: round; marker-end: url('#sequenceflow-end-white-black-88mve2nybhikl4lh9zoyj7p5s');"/></g><polyline points="574.5308642047986,154.82716080634046 574.5308642047986,213.82716080634043 619.5308642047986,214.82716080634043 " style="fill: none; stroke-opacity: 0; stroke: white; stroke-width: 15px;" class="djs-hit djs-hit-stroke"/><rect x="568.5308642047986" y="148.82716080634046" width="57" height="71.99999999999997" style="fill: none;" class="djs-outline"/></g></g><g class="djs-group"><g class="djs-element djs-connection" data-element-id="_c0fe5b37-d515-4845-99b5-2f8470e45e4d" style="display: block;"><g class="djs-visual"><path d="m  595.5308642047986,134.82716080634046L780.5308642047986,134.82716080634046 " style="fill: none; stroke-width: 2px; stroke: black; stroke-linejoin: round; marker-end: url('#sequenceflow-end-white-black-88mve2nybhikl4lh9zoyj7p5s');"/></g><polyline points="595.5308642047986,134.82716080634046 780.5308642047986,134.82716080634046 " style="fill: none; stroke-opacity: 0; stroke: white; stroke-width: 15px;" class="djs-hit djs-hit-stroke"/><rect x="589.5308642047986" y="128.82716080634046" width="197" height="12" style="fill: none;" class="djs-outline"/></g></g><g class="djs-group"><g class="djs-element djs-connection" data-element-id="_8e6b1483-d006-44a9-a47c-b2fd73331aa2" style="display: block;"><g class="djs-visual"><path d="m  651.5308642047986,214.82716080634043L691.5308642047986,214.82716080634043 " style="fill: none; stroke-width: 2px; stroke: black; stroke-linejoin: round; marker-end: url('#sequenceflow-end-white-black-88mve2nybhikl4lh9zoyj7p5s');"/></g><polyline points="651.5308642047986,214.82716080634043 691.5308642047986,214.82716080634043 " style="fill: none; stroke-opacity: 0; stroke: white; stroke-width: 15px;" class="djs-hit djs-hit-stroke"/><rect x="645.5308642047986" y="208.82716080634043" width="52" height="12" style="fill: none;" class="djs-outline"/></g></g><g class="djs-group"><g class="djs-element djs-connection" data-element-id="_639dd361-73e5-4ffe-876c-2911898ee415" style="display: block;"><g class="djs-visual"><path d="m  498.5308642047986,134.82716080634046L553.5308642047986,134.82716080634046 " style="fill: none; stroke-width: 2px; stroke: black; stroke-linejoin: round; marker-end: url('#sequenceflow-end-white-black-88mve2nybhikl4lh9zoyj7p5s');"/></g><polyline points="498.5308642047986,134.82716080634046 553.5308642047986,134.82716080634046 " style="fill: none; stroke-opacity: 0; stroke: white; stroke-width: 15px;" class="djs-hit djs-hit-stroke"/><rect x="492.5308642047986" y="128.82716080634046" width="67" height="12" style="fill: none;" class="djs-outline"/></g></g><g class="djs-group"><g class="djs-element djs-connection" data-element-id="_ae37ec39-6447-4526-8428-e77139c16fc0" style="display: block;"><g class="djs-visual"><path d="m  379.5308642047986,134.82716080634046L415.5308642047986,134.82716080634046 " style="fill: none; stroke-width: 2px; stroke: black; stroke-linejoin: round; marker-end: url('#sequenceflow-end-white-black-88mve2nybhikl4lh9zoyj7p5s');"/></g><polyline points="379.5308642047986,134.82716080634046 415.5308642047986,134.82716080634046 " style="fill: none; stroke-opacity: 0; stroke: white; stroke-width: 15px;" class="djs-hit djs-hit-stroke"/><rect x="373.5308642047986" y="128.82716080634046" width="48" height="12" style="fill: none;" class="djs-outline"/></g></g><g class="djs-group"><g class="djs-element djs-connection" data-element-id="_818be5de-df68-4a45-b6ec-1e5556eed6a9" style="display: block;"><g class="djs-visual"><path d="m  238.0621142047986,135.82716080634046L296.5308642047986,134.82716080634046 " style="fill: none; stroke-width: 2px; stroke: black; stroke-linejoin: round; marker-end: url('#sequenceflow-end-white-black-88mve2nybhikl4lh9zoyj7p5s');"/></g><polyline points="238.0621142047986,135.82716080634046 296.5308642047986,134.82716080634046 " style="fill: none; stroke-opacity: 0; stroke: white; stroke-width: 15px;" class="djs-hit djs-hit-stroke"/><rect x="232.0621142047986" y="128.82716080634046" width="70.46875" height="13" style="fill: none;" class="djs-outline"/></g></g><g class="djs-group"><g class="djs-element djs-shape" data-element-id="_b986491e-4d8e-4afd-939e-cf64f1105d78" transform="matrix(1, 0, 0, 1, 297, 101)" style="display: block;"><g class="djs-visual"><rect x="0" y="0" width="83" height="68" rx="10" ry="10" style="stroke: black; stroke-width: 2px; fill: white; fill-opacity: 0.95;"/><text style="font-family: Arial, sans-serif; font-size: 12px; font-weight: normal; fill: black;" lineHeight="1.2" class="djs-label"><tspan x="19.83333396911621" y="30.4">Select a </tspan><tspan x="26.833333015441895" y="44.8">Pizza</tspan></text></g><rect style="fill: none; stroke-opacity: 0; stroke: white; stroke-width: 15px;" class="djs-hit djs-hit-all" x="0" y="0" width="83" height="68"/><rect x="-6" y="-6" width="95" height="80" style="fill: none;" class="djs-outline"/></g></g><g class="djs-group"><g class="djs-element djs-shape" data-element-id="_0b779239-1faa-4344-9ffc-f7a190033dda" transform="matrix(1, 0, 0, 1, 416, 101)" style="display: block;"><g class="djs-visual"><rect x="0" y="0" width="83" height="68" rx="10" ry="10" style="stroke: black; stroke-width: 2px; fill: white; fill-opacity: 0.95;"/><text style="font-family: Arial, sans-serif; font-size: 12px; font-weight: normal; fill: black;" lineHeight="1.2" class="djs-label"><tspan x="21.16666603088379" y="30.4">Order a </tspan><tspan x="26.833333015441895" y="44.8">Pizza</tspan></text></g><rect style="fill: none; stroke-opacity: 0; stroke: white; stroke-width: 15px;" class="djs-hit djs-hit-all" x="0" y="0" width="83" height="68"/><rect x="-6" y="-6" width="95" height="80" style="fill: none;" class="djs-outline"/></g></g><g class="djs-group"><g class="djs-element djs-shape" data-element-id="_0ba735e0-6ed9-417a-a538-c5cdeb26bdad" transform="matrix(1, 0, 0, 1, 692, 181)" style="display: block;"><g class="djs-visual"><rect x="0" y="0" width="83" height="68" rx="10" ry="10" style="stroke: black; stroke-width: 2px; fill: white; fill-opacity: 0.95;"/><text style="font-family: Arial, sans-serif; font-size: 12px; font-weight: normal; fill: black;" lineHeight="1.2" class="djs-label"><tspan x="12.833333969116211" y="30.4">Ask for the </tspan><tspan x="27.5" y="44.8">pizza</tspan></text></g><rect style="fill: none; stroke-opacity: 0; stroke: white; stroke-width: 15px;" class="djs-hit djs-hit-all" x="0" y="0" width="83" height="68"/><rect x="-6" y="-6" width="95" height="80" style="fill: none;" class="djs-outline"/></g></g><g class="djs-group"><g class="djs-element djs-shape" data-element-id="_c239a80d-72c9-4d15-a2b0-b8a29b8d68dd" transform="matrix(1, 0, 0, 1, 554, 114)" style="display: block;"><g class="djs-visual"><polygon points="21,0 42,21 21,42 0,21" style="stroke: black; stroke-width: 2px; fill: white; fill-opacity: 0.95;"/><circle cx="21" cy="21" r="13" style="stroke: black; stroke-width: 1px; fill: none;"/><circle cx="21" cy="21" r="10" style="stroke: black; stroke-width: 1px; fill: none;"/><path d="m 15.12,18.48 6.1854545454545455,-4.123636363636363 6.1854545454545455,4.123636363636363 -2.0618181818181816,8.247272727272726 -8.247272727272726,0 z" style="fill: none; stroke-width: 2px; stroke: black;"/></g><rect style="fill: none; stroke-opacity: 0; stroke: white; stroke-width: 15px;" class="djs-hit djs-hit-all" x="0" y="0" width="42" height="42"/><rect x="-6" y="-6" width="54" height="54" style="fill: none;" class="djs-outline"/></g></g><g class="djs-group"><g class="djs-element djs-shape" data-element-id="_5f03ab32-1449-4327-aa1e-68e1dbb7b469" transform="matrix(1, 0, 0, 1, 974, 149)" style="display: block;"><g class="djs-visual"><rect x="0" y="0" width="83" height="68" rx="10" ry="10" style="stroke: black; stroke-width: 2px; fill: white; fill-opacity: 0.95;"/><text style="font-family: Arial, sans-serif; font-size: 12px; font-weight: normal; fill: black;" lineHeight="1.2" class="djs-label"><tspan x="6.166667938232422" y="37.6">Eat the Pizza</tspan></text></g><rect style="fill: none; stroke-opacity: 0; stroke: white; stroke-width: 15px;" class="djs-hit djs-hit-all" x="0" y="0" width="83" height="68"/><rect x="-6" y="-6" width="95" height="80" style="fill: none;" class="djs-outline"/></g></g><g class="djs-group"><g class="djs-element djs-shape" data-element-id="_bb38207f-9f2a-47ab-9c28-aaa3c89e416c" transform="matrix(1, 0, 0, 1, 214, 120)" style="display: block;"><g class="djs-visual"><circle cx="15" cy="15" r="15" style="stroke: black; stroke-width: 2px; fill: white; fill-opacity: 0.95;"/></g><rect style="fill: none; stroke-opacity: 0; stroke: white; stroke-width: 15px;" class="djs-hit djs-hit-all" x="0" y="0" width="30" height="30"/><rect x="-6" y="-6" width="42" height="42" style="fill: none;" class="djs-outline"/></g></g><g class="djs-group"><g class="djs-element djs-shape" data-element-id="_d80f87e0-caa2-4ea2-9c77-ac88721b812a" transform="matrix(1, 0, 0, 1, 860, 149)" style="display: block;"><g class="djs-visual"><rect x="0" y="0" width="83" height="68" rx="10" ry="10" style="stroke: black; stroke-width: 2px; fill: white; fill-opacity: 0.95;"/><text style="font-family: Arial, sans-serif; font-size: 12px; font-weight: normal; fill: black;" lineHeight="1.2" class="djs-label"><tspan x="21.16666603088379" y="30.4">Pay the </tspan><tspan x="26.833333015441895" y="44.8">Pizza</tspan></text></g><rect style="fill: none; stroke-opacity: 0; stroke: white; stroke-width: 15px;" class="djs-hit djs-hit-all" x="0" y="0" width="83" height="68"/><rect x="-6" y="-6" width="95" height="80" style="fill: none;" class="djs-outline"/></g></g><g class="djs-group"><g class="djs-element djs-shape" data-element-id="_4efe74f2-2d70-4560-830c-a06cf7334e6e" transform="matrix(1, 0, 0, 1, 781, 119)" style="display: block;"><g class="djs-visual"><circle cx="16" cy="16" r="16" style="stroke: black; stroke-width: 1px; fill: white; fill-opacity: 0.95;"/><circle cx="16" cy="16" r="13" style="stroke: black; stroke-width: 1px; fill: none;"/><path d="m 7.52,10.08 l 0,11.2 l 16.799999999999997,0 l 0,-11.2 z l 8.399999999999999,4.8 l 8.399999999999999,-4.8" style="fill: white; stroke-width: 1px; stroke: black;"/></g><rect style="fill: none; stroke-opacity: 0; stroke: white; stroke-width: 15px;" class="djs-hit djs-hit-all" x="0" y="0" width="32" height="32"/><rect x="-6" y="-6" width="44" height="44" style="fill: none;" class="djs-outline"/></g></g><g class="djs-group"><g class="djs-element djs-shape" data-element-id="_f70cc4a5-4a4f-40b5-9ad4-e3270ce38051" transform="matrix(1, 0, 0, 1, 1089, 167)" style="display: block;"><g class="djs-visual"><circle cx="16" cy="16" r="16" style="stroke: black; stroke-width: 4px; fill: white; fill-opacity: 0.95;"/></g><rect style="fill: none; stroke-opacity: 0; stroke: white; stroke-width: 15px;" class="djs-hit djs-hit-all" x="0" y="0" width="32" height="32"/><rect x="-6" y="-6" width="44" height="44" style="fill: none;" class="djs-outline"/></g></g><g class="djs-group"><g class="djs-element djs-shape" data-element-id="_fed09f45-385d-4e64-8db7-35021cd55fe6" transform="matrix(1, 0, 0, 1, 620, 199)" style="display: block;"><g class="djs-visual"><circle cx="16" cy="16" r="16" style="stroke: black; stroke-width: 1px; fill: white; fill-opacity: 0.95;"/><circle cx="16" cy="16" r="13" style="stroke: black; stroke-width: 1px; fill: none;"/><circle cx="16" cy="16" r="10" style="stroke: black; stroke-width: 2px; fill: white;"/><path d="M 16,16 l 2,-6.666666666666666 m -2,6.666666666666666 l 4.666666666666666,1.3333333333333333 " style="fill: none; stroke-width: 2px; stroke: black; stroke-linecap: square;"/><path d="M 16,16 m 0,6.666666666666666 l -0,2 " style="fill: none; stroke-width: 1px; stroke: black; stroke-linecap: square;" transform="rotate(0,16,16)"/><path d="M 16,16 m 0,6.666666666666666 l -0,2 " style="fill: none; stroke-width: 1px; stroke: black; stroke-linecap: square;" transform="rotate(30,16,16)"/><path d="M 16,16 m 0,6.666666666666666 l -0,2 " style="fill: none; stroke-width: 1px; stroke: black; stroke-linecap: square;" transform="rotate(60,16,16)"/><path d="M 16,16 m 0,6.666666666666666 l -0,2 " style="fill: none; stroke-width: 1px; stroke: black; stroke-linecap: square;" transform="rotate(90,16,16)"/><path d="M 16,16 m 0,6.666666666666666 l -0,2 " style="fill: none; stroke-width: 1px; stroke: black; stroke-linecap: square;" transform="rotate(120,16,16)"/><path d="M 16,16 m 0,6.666666666666666 l -0,2 " style="fill: none; stroke-width: 1px; stroke: black; stroke-linecap: square;" transform="rotate(150,16,16)"/><path d="M 16,16 m 0,6.666666666666666 l -0,2 " style="fill: none; stroke-width: 1px; stroke: black; stroke-linecap: square;" transform="rotate(180,16,16)"/><path d="M 16,16 m 0,6.666666666666666 l -0,2 " style="fill: none; stroke-width: 1px; stroke: black; stroke-linecap: square;" transform="rotate(210,16,16)"/><path d="M 16,16 m 0,6.666666666666666 l -0,2 " style="fill: none; stroke-width: 1px; stroke: black; stroke-linecap: square;" transform="rotate(240,16,16)"/><path d="M 16,16 m 0,6.666666666666666 l -0,2 " style="fill: none; stroke-width: 1px; stroke: black; stroke-linecap: square;" transform="rotate(270,16,16)"/><path d="M 16,16 m 0,6.666666666666666 l -0,2 " style="fill: none; stroke-width: 1px; stroke: black; stroke-linecap: square;" transform="rotate(300,16,16)"/><path d="M 16,16 m 0,6.666666666666666 l -0,2 " style="fill: none; stroke-width: 1px; stroke: black; stroke-linecap: square;" transform="rotate(330,16,16)"/></g><rect style="fill: none; stroke-opacity: 0; stroke: white; stroke-width: 15px;" class="djs-hit djs-hit-all" x="0" y="0" width="32" height="32"/><rect x="-6" y="-6" width="44" height="44" style="fill: none;" class="djs-outline"/></g></g></g></g><g class="djs-group"><g class="djs-element djs-shape" data-element-id="_1412cacc-3e70-4ec1-b5b4-73b70841efc3" transform="matrix(1, 0, 0, 1, 152, 329)" style="display: block;"><g class="djs-visual"><rect x="0" y="0" width="1002" height="485" rx="0" ry="0" style="stroke: black; stroke-width: 2px; fill: white; fill-opacity: 0.95;"/><polyline points="30,0 30,485 " style="fill: none; stroke: black; stroke-width: 2px;"/><text style="font-family: Arial, sans-serif; font-size: 12px; font-weight: normal; fill: black;" lineHeight="1.2" class="djs-label" transform="matrix(-1.83697e-16, -1, 1, -1.83697e-16, 0, 485)"><tspan x="207.15833282470703" y="18.6">Pizza Vendor</tspan></text></g><rect x="-6" y="-6" width="1014" height="497" style="fill: none;" class="djs-outline"/><rect style="fill: none; stroke-opacity: 0; stroke: white; stroke-width: 15px;" class="djs-hit djs-hit-click-stroke" x="0" y="0" width="1002" height="485"/><rect style="fill: none; stroke-opacity: 0; stroke: white; stroke-width: 15px;" class="djs-hit djs-hit-all" x="0" y="0" width="30" height="485"/></g><g class="djs-children"><g class="djs-group"><g class="djs-element djs-shape" data-element-id="_f3eefaf8-88b9-4aa5-b217-6ad686eb54d7" transform="matrix(1, 0, 0, 1, 182, 665)" style="display: block;"><g class="djs-visual"><rect x="0" y="0" width="972" height="149" rx="0" ry="0" style="stroke: black; stroke-width: 2px; fill: white; fill-opacity: 0.35;"/><text style="font-family: Arial, sans-serif; font-size: 12px; font-weight: normal; fill: black;" lineHeight="1.2" class="djs-label" transform="matrix(-1.83697e-16, -1, 1, -1.83697e-16, 0, 149)"><tspan x="40.83333206176758" y="18.6">Delivery Boy</tspan></text></g><rect x="-6" y="-6" width="984" height="161" style="fill: none;" class="djs-outline"/><rect style="fill: none; stroke-opacity: 0; stroke: white; stroke-width: 15px;" class="djs-hit djs-hit-click-stroke" x="0" y="0" width="972" height="149"/><rect style="fill: none; stroke-opacity: 0; stroke: white; stroke-width: 15px;" class="djs-hit djs-hit-all" x="0" y="0" width="30" height="149"/></g></g><g class="djs-group"><g class="djs-element djs-shape" data-element-id="_a32784d8-e221-4e61-b0f6-1ba16957e1a1" transform="matrix(1, 0, 0, 1, 182, 550)" style="display: block;"><g class="djs-visual"><rect x="0" y="0" width="972" height="115" rx="0" ry="0" style="stroke: black; stroke-width: 2px; fill: white; fill-opacity: 0.35;"/><text style="font-family: Arial, sans-serif; font-size: 12px; font-weight: normal; fill: black;" lineHeight="1.2" class="djs-label" transform="matrix(-1.83697e-16, -1, 1, -1.83697e-16, 0, 115)"><tspan x="28.5" y="18.6">Pizza Chef</tspan></text></g><rect x="-6" y="-6" width="984" height="127" style="fill: none;" class="djs-outline"/><rect style="fill: none; stroke-opacity: 0; stroke: white; stroke-width: 15px;" class="djs-hit djs-hit-click-stroke" x="0" y="0" width="972" height="115"/><rect style="fill: none; stroke-opacity: 0; stroke: white; stroke-width: 15px;" class="djs-hit djs-hit-all" x="0" y="0" width="30" height="115"/></g></g><g class="djs-group"><g class="djs-element djs-shape" data-element-id="_b2e6bc3a-dee6-4a1e-beaa-f43cf01bd040" transform="matrix(1, 0, 0, 1, 182, 329)" style="display: block;"><g class="djs-visual"><rect x="0" y="0" width="972" height="221" rx="0" ry="0" style="stroke: black; stroke-width: 2px; fill: white; fill-opacity: 0.35;"/><text style="font-family: Arial, sans-serif; font-size: 12px; font-weight: normal; fill: black;" lineHeight="1.2" class="djs-label" transform="matrix(-1.83697e-16, -1, 1, -1.83697e-16, 0, 221)"><tspan x="96.5" y="18.6">Clerk</tspan></text></g><rect x="-6" y="-6" width="984" height="233" style="fill: none;" class="djs-outline"/><rect style="fill: none; stroke-opacity: 0; stroke: white; stroke-width: 15px;" class="djs-hit djs-hit-click-stroke" x="0" y="0" width="972" height="221"/><rect style="fill: none; stroke-opacity: 0; stroke: white; stroke-width: 15px;" class="djs-hit djs-hit-all" x="0" y="0" width="30" height="221"/></g></g><g class="djs-group"><g class="djs-element djs-connection" data-element-id="_d2cf307f-e3db-44b5-bbd5-3426d7fcbfd6" style="display: block;"><g class="djs-visual"><path d="m  720.5308642047986,732.8271608063404L756.5308642047986,732.8271608063404 " style="fill: none; stroke-width: 2px; stroke: black; stroke-linejoin: round; marker-end: url('#sequenceflow-end-white-black-88mve2nybhikl4lh9zoyj7p5s');"/></g><polyline points="720.5308642047986,732.8271608063404 756.5308642047986,732.8271608063404 " style="fill: none; stroke-opacity: 0; stroke: white; stroke-width: 15px;" class="djs-hit djs-hit-stroke"/><rect x="714.5308642047986" y="726.8271608063404" width="48" height="12" style="fill: none;" class="djs-outline"/></g></g><g class="djs-group"><g class="djs-element djs-connection" data-element-id="_8aa18f00-ac07-488a-bc4a-ed2717876734" style="display: block;"><g class="djs-visual"><path d="m  839.5308642047986,732.8271608063404L875.5308642047986,732.8271608063404 " style="fill: none; stroke-width: 2px; stroke: black; stroke-linejoin: round; marker-end: url('#sequenceflow-end-white-black-88mve2nybhikl4lh9zoyj7p5s');"/></g><polyline points="839.5308642047986,732.8271608063404 875.5308642047986,732.8271608063404 " style="fill: none; stroke-opacity: 0; stroke: white; stroke-width: 15px;" class="djs-hit djs-hit-stroke"/><rect x="833.5308642047986" y="726.8271608063404" width="48" height="12" style="fill: none;" class="djs-outline"/></g></g><g class="djs-group"><g class="djs-element djs-connection" data-element-id="_1377ce3f-afdf-4c90-8368-87d9043bb484" style="display: block;"><g class="djs-visual"><path d="m  516.5308642047986,602.8271608063404L577.0308642047986,602.8271608063404 L577.0308642047986,732.8271608063404 L637.5308642047986,732.8271608063404 " style="fill: none; stroke-width: 2px; stroke: black; stroke-linejoin: round; marker-end: url('#sequenceflow-end-white-black-88mve2nybhikl4lh9zoyj7p5s');"/></g><polyline points="516.5308642047986,602.8271608063404 577.0308642047986,602.8271608063404 577.0308642047986,732.8271608063404 637.5308642047986,732.8271608063404 " style="fill: none; stroke-opacity: 0; stroke: white; stroke-width: 15px;" class="djs-hit djs-hit-stroke"/><rect x="510.5308642047986" y="596.8271608063404" width="133" height="142" style="fill: none;" class="djs-outline"/></g></g><g class="djs-group"><g class="djs-element djs-connection" data-element-id="_db27b2f3-e8e2-4bbb-aefd-130b11e4bfd3" style="display: block;"><g class="djs-visual"><path d="m  420.5308642047986,468.82716080634043L487.5308642047986,468.82716080634043 " style="fill: none; stroke-width: 2px; stroke: black; stroke-linejoin: round; marker-end: url('#sequenceflow-end-white-black-88mve2nybhikl4lh9zoyj7p5s');"/></g><polyline points="420.5308642047986,468.82716080634043 487.5308642047986,468.82716080634043 " style="fill: none; stroke-opacity: 0; stroke: white; stroke-width: 15px;" class="djs-hit djs-hit-stroke"/><rect x="414.5308642047986" y="462.82716080634043" width="79" height="12" style="fill: none;" class="djs-outline"/></g></g><g class="djs-group"><g class="djs-element djs-connection" data-element-id="_dbd896fc-d1b3-47c0-9228-0a55a2065a7c" style="display: block;"><g class="djs-visual"><path d="m  570.5308642047986,468.82716080634043L587.5308642047986,468.82716080634043 L587.5308642047986,525.9382719174515 L406.5308642047986,525.9382719174515 L406.5308642047986,479.82716080634043 " style="fill: none; stroke-width: 2px; stroke: black; stroke-linejoin: round; marker-end: url('#sequenceflow-end-white-black-88mve2nybhikl4lh9zoyj7p5s');"/></g><polyline points="570.5308642047986,468.82716080634043 587.5308642047986,468.82716080634043 587.5308642047986,525.9382719174515 406.5308642047986,525.9382719174515 406.5308642047986,479.82716080634043 " style="fill: none; stroke-opacity: 0; stroke: white; stroke-width: 15px;" class="djs-hit djs-hit-stroke"/><rect x="400.5308642047986" y="462.82716080634043" width="193" height="69.11111111111109" style="fill: none;" class="djs-outline"/></g></g><g class="djs-group"><g class="djs-element djs-connection" data-element-id="_b5501153-6c3f-49a1-8f87-d6e5743979ac" style="display: block;"><g class="djs-visual"><path d="m  243.5308642047986,468.82716080634043L280.5308642047986,468.82716080634043 " style="fill: none; stroke-width: 2px; stroke: black; stroke-linejoin: round; marker-end: url('#sequenceflow-end-white-black-88mve2nybhikl4lh9zoyj7p5s');"/></g><polyline points="243.5308642047986,468.82716080634043 280.5308642047986,468.82716080634043 " style="fill: none; stroke-opacity: 0; stroke: white; stroke-width: 15px;" class="djs-hit djs-hit-stroke"/><rect x="237.5308642047986" y="462.82716080634043" width="49" height="12" style="fill: none;" class="djs-outline"/></g></g><g class="djs-group"><g class="djs-element djs-connection" data-element-id="_bc80f4f3-ea3b-42ad-97e8-9211e6e26789" style="display: block;"><g class="djs-visual"><path d="m  301.5308642047986,489.82716080634043L301.5308642047986,602.8271608063404 L433.5308642047986,602.8271608063404 " style="fill: none; stroke-width: 2px; stroke: black; stroke-linejoin: round; marker-end: url('#sequenceflow-end-white-black-88mve2nybhikl4lh9zoyj7p5s');"/></g><polyline points="301.5308642047986,489.82716080634043 301.5308642047986,602.8271608063404 433.5308642047986,602.8271608063404 " style="fill: none; stroke-opacity: 0; stroke: white; stroke-width: 15px;" class="djs-hit djs-hit-stroke"/><rect x="295.5308642047986" y="483.82716080634043" width="144" height="125" style="fill: none;" class="djs-outline"/></g></g><g class="djs-group"><g class="djs-element djs-connection" data-element-id="_d35481da-955c-4aec-ad7d-8b23bd645a2c" style="display: block;"><g class="djs-visual"><path d="m  322.5308642047986,468.82716080634043L388.5308642047986,468.82716080634043 " style="fill: none; stroke-width: 2px; stroke: black; stroke-linejoin: round; marker-end: url('#sequenceflow-end-white-black-88mve2nybhikl4lh9zoyj7p5s');"/></g><polyline points="322.5308642047986,468.82716080634043 388.5308642047986,468.82716080634043 " style="fill: none; stroke-opacity: 0; stroke: white; stroke-width: 15px;" class="djs-hit djs-hit-stroke"/><rect x="316.5308642047986" y="462.82716080634043" width="78" height="12" style="fill: none;" class="djs-outline"/></g></g><g class="djs-group"><g class="djs-element djs-shape" data-element-id="_6a9a1824-7393-43ff-bfbf-86b9f2e8b683" transform="matrix(1, 0, 0, 1, 281, 448)" style="display: block;"><g class="djs-visual"><polygon points="21,0 42,21 21,42 0,21" style="stroke: black; stroke-width: 2px; fill: white; fill-opacity: 0.95;"/><path d="m 19.32,8.4 0,10.5 -10.5,0 0,4.2 10.5,0 0,10.5 4.2,0 0,-10.5 10.5,0 0,-4.2 -10.5,0 0,-10.5 -4.2,0 z" style="fill: black; stroke-width: 1px; stroke: black;"/></g><rect style="fill: none; stroke-opacity: 0; stroke: white; stroke-width: 15px;" class="djs-hit djs-hit-all" x="0" y="0" width="42" height="42"/><rect x="-6" y="-6" width="54" height="54" style="fill: none;" class="djs-outline"/></g></g><g class="djs-group"><g class="djs-element djs-shape" data-element-id="_72ad8bba-90e2-4e5e-8f77-cea00cee971d" transform="matrix(1, 0, 0, 1, 389, 453)" style="display: block;"><g class="djs-visual"><circle cx="16" cy="16" r="16" style="stroke: black; stroke-width: 1px; fill: white; fill-opacity: 0.95;"/><circle cx="16" cy="16" r="13" style="stroke: black; stroke-width: 1px; fill: none;"/><path d="m 7.52,10.08 l 0,11.2 l 16.799999999999997,0 l 0,-11.2 z l 8.399999999999999,4.8 l 8.399999999999999,-4.8" style="fill: white; stroke-width: 1px; stroke: black;"/></g><rect style="fill: none; stroke-opacity: 0; stroke: white; stroke-width: 15px;" class="djs-hit djs-hit-all" x="0" y="0" width="32" height="32"/><rect x="-6" y="-6" width="44" height="44" style="fill: none;" class="djs-outline"/></g></g><g class="djs-group"><g class="djs-element djs-shape" data-element-id="_d0f88f9d-5db5-4b43-9e7a-5e9359d9c94f" transform="matrix(1, 0, 0, 1, 488, 435)" style="display: block;"><g class="djs-visual"><rect x="0" y="0" width="83" height="68" rx="10" ry="10" style="stroke: black; stroke-width: 2px; fill: white; fill-opacity: 0.95;"/><text style="font-family: Arial, sans-serif; font-size: 12px; font-weight: normal; fill: black;" lineHeight="1.2" class="djs-label"><tspan x="27.5" y="30.4">Calm </tspan><tspan x="15.5" y="44.8">Customer</tspan></text></g><rect style="fill: none; stroke-opacity: 0; stroke: white; stroke-width: 15px;" class="djs-hit djs-hit-all" x="0" y="0" width="83" height="68"/><rect x="-6" y="-6" width="95" height="80" style="fill: none;" class="djs-outline"/></g></g><g class="djs-group"><g class="djs-element djs-shape" data-element-id="_94211ca0-1735-4c6e-be5a-13d6638ee1cc" transform="matrix(1, 0, 0, 1, 214, 454)" style="display: block;"><g class="djs-visual"><circle cx="15" cy="15" r="15" style="stroke: black; stroke-width: 2px; fill: white; fill-opacity: 0.95;"/><path d="m 7.05,9.45 l 0,10.5 l 15.75,0 l 0,-10.5 z l 7.875,4.5 l 7.875,-4.5" style="fill: white; stroke-width: 1px; stroke: black;"/></g><rect style="fill: none; stroke-opacity: 0; stroke: white; stroke-width: 15px;" class="djs-hit djs-hit-all" x="0" y="0" width="30" height="30"/><rect x="-6" y="-6" width="42" height="42" style="fill: none;" class="djs-outline"/></g></g><g class="djs-group"><g class="djs-element djs-shape" data-element-id="_4c4665de-0e59-4702-ab1e-c7be3756050e" transform="matrix(1, 0, 0, 1, 434, 569)" style="display: block;"><g class="djs-visual"><rect x="0" y="0" width="83" height="68" rx="10" ry="10" style="stroke: black; stroke-width: 2px; fill: white; fill-opacity: 0.95;"/><text style="font-family: Arial, sans-serif; font-size: 12px; font-weight: normal; fill: black;" lineHeight="1.2" class="djs-label"><tspan x="17.83333396911621" y="30.4">Bake the </tspan><tspan x="26.833333015441895" y="44.8">Pizza</tspan></text></g><rect style="fill: none; stroke-opacity: 0; stroke: white; stroke-width: 15px;" class="djs-hit djs-hit-all" x="0" y="0" width="83" height="68"/><rect x="-6" y="-6" width="95" height="80" style="fill: none;" class="djs-outline"/></g></g><g class="djs-group"><g class="djs-element djs-shape" data-element-id="_f0636872-c3a1-495e-8c3f-a9748bd6b445" transform="matrix(1, 0, 0, 1, 757, 699)" style="display: block;"><g class="djs-visual"><rect x="0" y="0" width="83" height="68" rx="10" ry="10" style="stroke: black; stroke-width: 2px; fill: white; fill-opacity: 0.95;"/><text style="font-family: Arial, sans-serif; font-size: 12px; font-weight: normal; fill: black;" lineHeight="1.2" class="djs-label"><tspan x="19.83333396911621" y="30.4">Receive </tspan><tspan x="17.83333396911621" y="44.8">Payment</tspan></text></g><rect style="fill: none; stroke-opacity: 0; stroke: white; stroke-width: 15px;" class="djs-hit djs-hit-all" x="0" y="0" width="83" height="68"/><rect x="-6" y="-6" width="95" height="80" style="fill: none;" class="djs-outline"/></g></g><g class="djs-group"><g class="djs-element djs-shape" data-element-id="_48bd765e-7ea8-4f42-bf43-0126dbf0b075" transform="matrix(1, 0, 0, 1, 638, 699)" style="display: block;"><g class="djs-visual"><rect x="0" y="0" width="83" height="68" rx="10" ry="10" style="stroke: black; stroke-width: 2px; fill: white; fill-opacity: 0.95;"/><text style="font-family: Arial, sans-serif; font-size: 12px; font-weight: normal; fill: black;" lineHeight="1.2" class="djs-label"><tspan x="12.833333969116211" y="30.4">Deliver the </tspan><tspan x="26.833333015441895" y="44.8">Pizza</tspan></text></g><rect style="fill: none; stroke-opacity: 0; stroke: white; stroke-width: 15px;" class="djs-hit djs-hit-all" x="0" y="0" width="83" height="68"/><rect x="-6" y="-6" width="95" height="80" style="fill: none;" class="djs-outline"/></g></g><g class="djs-group"><g class="djs-element djs-shape" data-element-id="_ba94b4b9-e979-4df3-86ac-fb97a56b5dd7" transform="matrix(1, 0, 0, 1, 876, 717)" style="display: block;"><g class="djs-visual"><circle cx="16" cy="16" r="16" style="stroke: black; stroke-width: 4px; fill: white; fill-opacity: 0.95;"/><circle cx="16" cy="16" r="8" style="stroke: black; stroke-width: 4px; fill: black;"/></g><rect style="fill: none; stroke-opacity: 0; stroke: white; stroke-width: 15px;" class="djs-hit djs-hit-all" x="0" y="0" width="32" height="32"/><rect x="-6" y="-6" width="44" height="44" style="fill: none;" class="djs-outline"/></g></g></g></g><g class="djs-group"><g class="djs-element djs-shape" data-element-id="_bb38207f-9f2a-47ab-9c28-aaa3c89e416c_label" transform="matrix(1, 0, 0, 1, 188, 155)" style="display: block;"><g class="djs-visual"><text style="font-family: Arial, sans-serif; font-size: 11px; font-weight: normal; fill: black;" lineHeight="1.2" class="djs-label"><tspan x="0" y="9.899999999999999">Hungry for Pizza</tspan></text></g><rect style="fill: none; stroke-opacity: 0; stroke: white; stroke-width: 15px;" class="djs-hit djs-hit-all" x="0" y="0" width="82" height="14"/><rect x="-6" y="-6" width="94" height="26" style="fill: none;" class="djs-outline"/></g></g><g class="djs-group"><g class="djs-element djs-shape" data-element-id="_4efe74f2-2d70-4560-830c-a06cf7334e6e_label" transform="matrix(1, 0, 0, 1, 758, 102)" style="display: block;"><g class="djs-visual"><text style="font-family: Arial, sans-serif; font-size: 11px; font-weight: normal; fill: black;" lineHeight="1.2" class="djs-label"><tspan x="0" y="9.899999999999999">Pizza Received</tspan></text></g><rect style="fill: none; stroke-opacity: 0; stroke: white; stroke-width: 15px;" class="djs-hit djs-hit-all" x="0" y="0" width="76" height="14"/><rect x="-6" y="-6" width="88" height="26" style="fill: none;" class="djs-outline"/></g></g><g class="djs-group"><g class="djs-element djs-shape" data-element-id="_f70cc4a5-4a4f-40b5-9ad4-e3270ce38051_label" transform="matrix(1, 0, 0, 1, 1064, 204)" style="display: block;"><g class="djs-visual"><text style="font-family: Arial, sans-serif; font-size: 11px; font-weight: normal; fill: black;" lineHeight="1.2" class="djs-label"><tspan x="0" y="9.899999999999999">Hunger Satisfied</tspan></text></g><rect style="fill: none; stroke-opacity: 0; stroke: white; stroke-width: 15px;" class="djs-hit djs-hit-all" x="0" y="0" width="82" height="14"/><rect x="-6" y="-6" width="94" height="26" style="fill: none;" class="djs-outline"/></g></g><g class="djs-group"><g class="djs-element djs-shape" data-element-id="_fed09f45-385d-4e64-8db7-35021cd55fe6_label" transform="matrix(1, 0, 0, 1, 609, 236)" style="display: block;"><g class="djs-visual"><text style="font-family: Arial, sans-serif; font-size: 11px; font-weight: normal; fill: black;" lineHeight="1.2" class="djs-label"><tspan x="0" y="9.899999999999999">60 Minutes</tspan></text></g><rect style="fill: none; stroke-opacity: 0; stroke: white; stroke-width: 15px;" class="djs-hit djs-hit-all" x="0" y="0" width="54" height="14"/><rect x="-6" y="-6" width="66" height="26" style="fill: none;" class="djs-outline"/></g></g><g class="djs-group"><g class="djs-element djs-shape" data-element-id="_94211ca0-1735-4c6e-be5a-13d6638ee1cc_label" transform="matrix(1, 0, 0, 1, 190, 489)" style="display: block;"><g class="djs-visual"><text style="font-family: Arial, sans-serif; font-size: 11px; font-weight: normal; fill: black;" lineHeight="1.2" class="djs-label"><tspan x="0" y="9.899999999999999">Order Received</tspan></text></g><rect style="fill: none; stroke-opacity: 0; stroke: white; stroke-width: 15px;" class="djs-hit djs-hit-all" x="0" y="0" width="78" height="14"/><rect x="-6" y="-6" width="90" height="26" style="fill: none;" class="djs-outline"/></g></g><g class="djs-group"><g class="djs-element djs-shape" data-element-id="_72ad8bba-90e2-4e5e-8f77-cea00cee971d_label" transform="matrix(1, 0, 0, 1, 371, 496)" style="display: block;"><g class="djs-visual"><text style="font-family: Arial, sans-serif; font-size: 11px; font-weight: normal; fill: black;" lineHeight="1.2" class="djs-label"><tspan x="0" y="9.899999999999999">«Where Is My </tspan><tspan x="17.408334732055664" y="23.099999999999998">Pizza»</tspan></text></g><rect style="fill: none; stroke-opacity: 0; stroke: white; stroke-width: 15px;" class="djs-hit djs-hit-all" x="0" y="0" width="68" height="27"/><rect x="-6" y="-6" width="80" height="39" style="fill: none;" class="djs-outline"/></g></g><g class="djs-group"><g class="djs-element djs-connection" data-element-id="_5b055fd6-4327-4f75-91be-2e6b1004609e" style="display: block;"><g class="djs-visual"><path d="m  443.5308642047986,168.82716080634043L443.5308642047986,311.32716080634043 L228.5308642047986,311.32716080634043 L228.5308642047986,453.82716080634043 " style="fill: none; stroke-width: 1.5px; stroke: black; marker-end: url('#messageflow-end-white-black-88mve2nybhikl4lh9zoyj7p5s'); marker-start: url('#messageflow-start-white-black-88mve2nybhikl4lh9zoyj7p5s'); stroke-dasharray: 10px, 12px; stroke-linecap: round; stroke-linejoin: round;"/><path d="m 336.0308532714844,311.3271484375 m -10.5 ,-7 l 0,14 l 21,0 l 0,-14 z l 10.5,6 l 10.5,-6" style="fill: white; stroke-width: 1px; stroke: black;"/></g><polyline points="443.5308642047986,168.82716080634043 443.5308642047986,311.32716080634043 228.5308642047986,311.32716080634043 228.5308642047986,453.82716080634043 " style="fill: none; stroke-opacity: 0; stroke: white; stroke-width: 15px;" class="djs-hit djs-hit-stroke"/><rect x="222.5308642047986" y="162.82716080634043" width="227" height="297" style="fill: none;" class="djs-outline"/></g></g><g class="djs-group"><g class="djs-element djs-connection" data-element-id="_3ed4f3b3-9b15-423e-82dc-b3533b4191b2" style="display: block;"><g class="djs-visual"><path d="m  528.5308642047986,434.82716080634043L528.5308642047986,341.82716080634043 L746.5308642047986,341.82716080634043 L746.5308642047986,248.82716080634043 " style="fill: none; stroke-width: 1.5px; stroke: black; marker-end: url('#messageflow-end-white-black-88mve2nybhikl4lh9zoyj7p5s'); marker-start: url('#messageflow-start-white-black-88mve2nybhikl4lh9zoyj7p5s'); stroke-dasharray: 10px, 12px; stroke-linecap: round; stroke-linejoin: round;"/><path d="m 637.5308837890625,341.8271484375 m -10.5 ,-7 l 0,14 l 21,0 l 0,-14 z l 10.5,6 l 10.5,-6" style="fill: white; stroke-width: 1px; stroke: black;"/></g><polyline points="528.5308642047986,434.82716080634043 528.5308642047986,341.82716080634043 746.5308642047986,341.82716080634043 746.5308642047986,248.82716080634043 " style="fill: none; stroke-opacity: 0; stroke: white; stroke-width: 15px;" class="djs-hit djs-hit-stroke"/><rect x="522.5308642047986" y="242.82716080634043" width="230" height="198" style="fill: none;" class="djs-outline"/></g></g><g class="djs-group"><g class="djs-element djs-connection" data-element-id="_570174ac-169a-445d-abb0-712b8bcbea9c" style="display: block;"><g class="djs-visual"><path d="m  718.5308642047986,248.82716080634043L718.5308642047986,375.82716080634043 L404.5308642047986,375.82716080634043 L404.5308642047986,452.82716080634043 " style="fill: none; stroke-width: 1.5px; stroke: black; marker-end: url('#messageflow-end-white-black-88mve2nybhikl4lh9zoyj7p5s'); marker-start: url('#messageflow-start-white-black-88mve2nybhikl4lh9zoyj7p5s'); stroke-dasharray: 10px, 12px; stroke-linecap: round; stroke-linejoin: round;"/><path d="m 586.5308837890625,375.8271484375 m -10.5 ,-7 l 0,14 l 21,0 l 0,-14 z l 10.5,6 l 10.5,-6" style="fill: white; stroke-width: 1px; stroke: black;"/></g><polyline points="718.5308642047986,248.82716080634043 718.5308642047986,375.82716080634043 404.5308642047986,375.82716080634043 404.5308642047986,452.82716080634043 " style="fill: none; stroke-opacity: 0; stroke: white; stroke-width: 15px;" class="djs-hit djs-hit-stroke"/><rect x="398.5308642047986" y="242.82716080634043" width="326" height="216" style="fill: none;" class="djs-outline"/></g></g><g class="djs-group"><g class="djs-element djs-connection" data-element-id="_31d38bf8-762f-4817-b3d7-9cc632f177a3" style="display: block;"><g class="djs-visual"><path d="m  811.5308642047986,698.8271608063404L811.5308642047986,459.82716080634043 L914.5308642047986,459.82716080634043 L914.5308642047986,216.82716080634043 " style="fill: none; stroke-width: 1.5px; stroke: black; marker-end: url('#messageflow-end-white-black-88mve2nybhikl4lh9zoyj7p5s'); marker-start: url('#messageflow-start-white-black-88mve2nybhikl4lh9zoyj7p5s'); stroke-dasharray: 10px, 12px; stroke-linecap: round; stroke-linejoin: round;"/><path d="m 865.0308837890625,459.8271484375 m -10.5 ,-7 l 0,14 l 21,0 l 0,-14 z l 10.5,6 l 10.5,-6" style="fill: white; stroke-width: 1px; stroke: black;"/></g><polyline points="811.5308642047986,698.8271608063404 811.5308642047986,459.82716080634043 914.5308642047986,459.82716080634043 914.5308642047986,216.82716080634043 " style="fill: none; stroke-opacity: 0; stroke: white; stroke-width: 15px;" class="djs-hit djs-hit-stroke"/><rect x="805.5308642047986" y="210.82716080634043" width="115" height="494" style="fill: none;" class="djs-outline"/></g></g><g class="djs-group"><g class="djs-element djs-connection" data-element-id="_eb54993b-db5b-438e-bbeb-2c6071636cf3" style="display: block;"><g class="djs-visual"><path d="m  886.5308642047986,216.82716080634043L886.5308642047986,457.82716080634043 L772.5308642047986,457.82716080634043 L772.5308642047986,698.8271608063404 " style="fill: none; stroke-width: 1.5px; stroke: black; marker-end: url('#messageflow-end-white-black-88mve2nybhikl4lh9zoyj7p5s'); marker-start: url('#messageflow-start-white-black-88mve2nybhikl4lh9zoyj7p5s'); stroke-dasharray: 10px, 12px; stroke-linecap: round; stroke-linejoin: round;"/><path d="m 829.5308837890625,457.8271484375 m -10.5 ,-7 l 0,14 l 21,0 l 0,-14 z l 10.5,6 l 10.5,-6" style="fill: white; stroke-width: 1px; stroke: black;"/></g><polyline points="886.5308642047986,216.82716080634043 886.5308642047986,457.82716080634043 772.5308642047986,457.82716080634043 772.5308642047986,698.8271608063404 " style="fill: none; stroke-opacity: 0; stroke: white; stroke-width: 15px;" class="djs-hit djs-hit-stroke"/><rect x="766.5308642047986" y="210.82716080634043" width="126" height="494" style="fill: none;" class="djs-outline"/></g></g><g class="djs-group"><g class="djs-element djs-connection" data-element-id="_c8f4aef1-0e27-464e-a483-894e85e0570b" style="display: block;"><g class="djs-visual"><path d="m  678.5308642047986,698.8271608063404L678.5308642047986,424.82716080634043 L796.5308642047986,424.82716080634043 L796.5308642047986,150.82716080634046 " style="fill: none; stroke-width: 1.5px; stroke: black; marker-end: url('#messageflow-end-white-black-88mve2nybhikl4lh9zoyj7p5s'); marker-start: url('#messageflow-start-white-black-88mve2nybhikl4lh9zoyj7p5s'); stroke-dasharray: 10px, 12px; stroke-linecap: round; stroke-linejoin: round;"/><path d="m 737.5308837890625,424.8271484375 m -10.5 ,-7 l 0,14 l 21,0 l 0,-14 z l 10.5,6 l 10.5,-6" style="fill: white; stroke-width: 1px; stroke: black;"/></g><polyline points="678.5308642047986,698.8271608063404 678.5308642047986,424.82716080634043 796.5308642047986,424.82716080634043 796.5308642047986,150.82716080634046 " style="fill: none; stroke-opacity: 0; stroke: white; stroke-width: 15px;" class="djs-hit djs-hit-stroke"/><rect x="672.5308642047986" y="144.82716080634046" width="130" height="560" style="fill: none;" class="djs-outline"/></g></g></svg>